<?xml version="1.0" encoding="utf-8"?>
<svg version="1.1" xmlns:xlink="http://www.w3.org/1999/xlink" width="26px" height="23px" xmlns="http://www.w3.org/2000/svg">
  <g transform="matrix(1 0 0 1 -223 -88 )">
    <path d="M 19.703125 20.798828125  C 19.9010416666667 20.6091579861111  20 20.3845486111111  20 20.125  C 20 19.8654513888889  19.9010416666667 19.6408420138889  19.703125 19.451171875  C 19.5052083333333 19.2615017361111  19.2708333333333 19.1666666666667  19 19.1666666666667  C 18.7291666666667 19.1666666666667  18.4947916666667 19.2615017361111  18.296875 19.451171875  C 18.0989583333333 19.6408420138889  18 19.8654513888889  18 20.125  C 18 20.3845486111111  18.0989583333333 20.6091579861111  18.296875 20.798828125  C 18.4947916666667 20.9884982638889  18.7291666666667 21.0833333333333  19 21.0833333333333  C 19.2708333333333 21.0833333333333  19.5052083333333 20.9884982638889  19.703125 20.798828125  Z M 23.703125 20.798828125  C 23.9010416666667 20.6091579861111  24 20.3845486111111  24 20.125  C 24 19.8654513888889  23.9010416666667 19.6408420138889  23.703125 19.451171875  C 23.5052083333333 19.2615017361111  23.2708333333333 19.1666666666667  23 19.1666666666667  C 22.7291666666667 19.1666666666667  22.4947916666667 19.2615017361111  22.296875 19.451171875  C 22.0989583333333 19.6408420138889  22 19.8654513888889  22 20.125  C 22 20.3845486111111  22.0989583333333 20.6091579861111  22.296875 20.798828125  C 22.4947916666667 20.9884982638889  22.7291666666667 21.0833333333333  23 21.0833333333333  C 23.2708333333333 21.0833333333333  23.5052083333333 20.9884982638889  23.703125 20.798828125  Z M 25.5625 15.7526041666667  C 25.8541666666667 16.0321180555556  26 16.3715277777778  26 16.7708333333333  L 26 21.5625  C 26 21.9618055555556  25.8541666666667 22.3012152777778  25.5625 22.5807291666667  C 25.2708333333333 22.8602430555556  24.9166666666667 23  24.5 23  L 1.5 23  C 1.08333333333333 23  0.729166666666667 22.8602430555556  0.4375 22.5807291666667  C 0.145833333333333 22.3012152777778  0 21.9618055555556  0 21.5625  L 0 16.7708333333333  C 0 16.3715277777778  0.145833333333333 16.0321180555556  0.4375 15.7526041666667  C 0.729166666666667 15.4730902777778  1.08333333333333 15.3333333333333  1.5 15.3333333333333  L 8.765625 15.3333333333333  L 10.875 17.3697916666667  C 11.4791666666667 17.9288194444444  12.1875 18.2083333333333  13 18.2083333333333  C 13.8125 18.2083333333333  14.5208333333333 17.9288194444444  15.125 17.3697916666667  L 17.25 15.3333333333333  L 24.5 15.3333333333333  C 24.9166666666667 15.3333333333333  25.2708333333333 15.4730902777778  25.5625 15.7526041666667  Z M 20 7.66666666666667  C 20.4375 7.66666666666667  20.7447916666667 7.861328125  20.921875 8.25065104166667  C 21.0989583333333 8.65993923611111  21.0260416666667 9.00933159722222  20.703125 9.298828125  L 13.703125 16.0071614583333  C 13.515625 16.1968315972222  13.28125 16.2916666666667  13 16.2916666666667  C 12.71875 16.2916666666667  12.484375 16.1968315972222  12.296875 16.0071614583333  L 5.296875 9.298828125  C 4.97395833333333 9.00933159722222  4.90104166666667 8.65993923611111  5.078125 8.25065104166667  C 5.25520833333333 7.861328125  5.5625 7.66666666666667  6 7.66666666666667  L 10 7.66666666666667  L 10 0.958333333333332  C 10 0.698784722222219  10.0989583333333 0.474175347222219  10.296875 0.284505208333332  C 10.4947916666667 0.0948350694444459  10.7291666666667 0  11 0  L 15 0  C 15.2708333333333 0  15.5052083333333 0.0948350694444459  15.703125 0.284505208333332  C 15.9010416666667 0.474175347222219  16 0.698784722222219  16 0.958333333333332  L 16 7.66666666666667  L 20 7.66666666666667  Z " fill-rule="nonzero" fill="#1890ff" stroke="none" transform="matrix(1 0 0 1 223 88 )" />
  </g>
</svg>