<?xml version="1.0" standalone="no"?><!DOCTYPE svg PUBLIC "-//W3C//DTD SVG 1.1//EN" "http://www.w3.org/Graphics/SVG/1.1/DTD/svg11.dtd"><svg t="1658807728018" class="icon" viewBox="0 0 1024 1024" version="1.1" xmlns="http://www.w3.org/2000/svg" p-id="2150" xmlns:xlink="http://www.w3.org/1999/xlink" width="200" height="200"><defs><style type="text/css">@font-face { font-family: "feedback-iconfont"; src: url("//at.alicdn.com/t/font_1031158_u69w8yhxdu.woff2?t=1630033759944") format("woff2"), url("//at.alicdn.com/t/font_1031158_u69w8yhxdu.woff?t=1630033759944") format("woff"), url("//at.alicdn.com/t/font_1031158_u69w8yhxdu.ttf?t=1630033759944") format("truetype"); }
</style></defs><path d="M563.48 239.54c-178.92 0-323.97 57-323.97 127.31v482.41c58.18 21.88 137.08 35.33 223.97 35.33 65.68 0 126.78-7.69 177.83-20.89-52.52-27.82-88.3-83.02-88.3-146.59 0-91.56 74.23-165.79 165.79-165.79 24.49 0 47.74 5.31 68.66 14.85v-291.3c-58.19-21.89-137.08-35.33-223.98-35.33z" fill="#E9F1FF" p-id="2151"></path><path d="M463.48 419.16c-89.59 0-174.19-13.86-238.23-39.02-32.68-12.84-58.68-28.12-77.3-45.42-27.64-25.68-33.44-51.08-33.44-67.87s5.8-42.19 33.44-67.87c18.62-17.3 44.63-32.58 77.3-45.42 64.03-25.16 148.64-39.02 238.23-39.02s174.19 13.86 238.23 39.02c32.68 12.84 58.68 28.12 77.3 45.42 27.64 25.68 33.44 51.08 33.44 67.87s-5.8 42.19-33.44 67.87c-18.62 17.3-44.63 32.58-77.3 45.42-64.03 25.16-148.64 39.02-238.23 39.02z m0-254.62c-185.23 0-298.97 59.59-298.97 102.31s113.74 102.31 298.97 102.31 298.97-59.59 298.97-102.31-113.73-102.31-298.97-102.31zM463.48 576.2c-89.59 0-174.19-13.86-238.23-39.02-32.68-12.84-58.68-28.12-77.3-45.42-27.64-25.68-33.44-51.08-33.44-67.87 0-13.81 11.19-25 25-25s25 11.19 25 25c0 42.72 113.74 102.31 298.97 102.31 32.1 0 63.73-1.89 94.03-5.63 13.71-1.69 26.18 8.05 27.87 21.75 1.69 13.7-8.05 26.18-21.75 27.87-32.32 3.99-66.01 6.01-100.15 6.01zM756.89 502.95c-7.15 0-14.24-3.05-19.19-8.96-8.86-10.59-7.46-26.36 3.13-35.22 9.86-8.25 21.62-21 21.62-34.88 0-13.81 11.19-25 25-25s25 11.19 25 25c0 18.32-6.86 45.9-39.53 73.23a24.878 24.878 0 0 1-16.03 5.83zM463.48 738.11c-89.59 0-174.19-13.86-238.23-39.02-32.68-12.84-58.68-28.12-77.3-45.42-27.64-25.68-33.44-51.08-33.44-67.87 0-13.81 11.19-25 25-25s25 11.19 25 25c0 42.72 113.74 102.31 298.97 102.31 13.81 0 25 11.19 25 25s-11.19 25-25 25z" fill="#2C5CCB" p-id="2152"></path><path d="M718.8 907.89c-105.2 0-190.79-85.59-190.79-190.79 0-105.2 85.59-190.79 190.79-190.79 105.2 0 190.79 85.59 190.79 190.79-0.01 105.21-85.59 190.79-190.79 190.79z m0-331.57c-77.63 0-140.79 63.16-140.79 140.79S641.17 857.9 718.8 857.9s140.79-63.16 140.79-140.79c-0.01-77.63-63.16-140.79-140.79-140.79z" fill="#2C5CCB" p-id="2153"></path><path d="M635.9 835.17c-59.49 0-107.89-48.4-107.89-107.89 0-13.81 11.19-25 25-25s25 11.19 25 25c0 31.92 25.97 57.89 57.89 57.89s57.89-25.97 57.89-57.89c0-59.57 48.4-107.98 107.89-107.98s107.89 48.4 107.89 107.89c0 13.81-11.19 25-25 25s-25-11.19-25-25c0-31.92-25.97-57.89-57.89-57.89s-57.89 25.97-57.89 57.89c0.01 59.58-48.39 107.98-107.89 107.98z" fill="#2C5CCB" p-id="2154"></path><path d="M718.8 907.89c-105.2 0-190.79-85.59-190.79-190.79 0-105.2 85.59-190.79 190.79-190.79 105.2 0 190.79 85.59 190.79 190.79-0.01 105.21-85.59 190.79-190.79 190.79z m0-331.57c-77.63 0-140.79 63.16-140.79 140.79S641.17 857.9 718.8 857.9s140.79-63.16 140.79-140.79c-0.01-77.63-63.16-140.79-140.79-140.79z" fill="#2C5CCB" p-id="2155"></path><path d="M463.48 909.58c-89.59 0-174.19-13.86-238.23-39.02-32.68-12.84-58.68-28.12-77.3-45.42-27.64-25.68-33.44-51.08-33.44-67.87V266.85c0-16.79 5.8-42.19 33.44-67.87 18.62-17.3 44.63-32.58 77.3-45.42 64.03-25.16 148.64-39.02 238.23-39.02s174.19 13.86 238.23 39.02c32.68 12.84 58.68 28.12 77.3 45.42 27.64 25.68 33.44 51.08 33.44 67.87v299.32c0 8.5-4.32 16.42-11.47 21.03a25.017 25.017 0 0 1-23.89 1.73c-18.35-8.36-37.96-12.6-58.29-12.6-77.63 0-140.79 63.16-140.79 140.79 0 52.29 28.74 99.99 75 124.5 9.12 4.83 14.33 14.76 13.13 25.01s-8.58 18.7-18.57 21.28c-54.87 14.17-118.52 21.67-184.09 21.67z m0-745.04c-185.23 0-298.97 59.59-298.97 102.31v490.43c0 42.72 113.74 102.31 298.97 102.31 41.17 0 81.41-3.12 118.79-9.14-34.32-35.09-54.26-82.62-54.26-133.33 0-105.2 85.59-190.79 190.79-190.79 14.87 0 29.46 1.68 43.66 5.01V266.85c-0.01-42.72-113.74-102.31-298.98-102.31z" fill="#2C5CCB" p-id="2156"></path></svg>