<?xml version="1.0" standalone="no"?><!DOCTYPE svg PUBLIC "-//W3C//DTD SVG 1.1//EN" "http://www.w3.org/Graphics/SVG/1.1/DTD/svg11.dtd"><svg t="1658807463964" class="icon" viewBox="0 0 1024 1024" version="1.1" xmlns="http://www.w3.org/2000/svg" p-id="1395" xmlns:xlink="http://www.w3.org/1999/xlink" width="200" height="200"><defs><style type="text/css">@font-face { font-family: "feedback-iconfont"; src: url("//at.alicdn.com/t/font_1031158_u69w8yhxdu.woff2?t=1630033759944") format("woff2"), url("//at.alicdn.com/t/font_1031158_u69w8yhxdu.woff?t=1630033759944") format("woff"), url("//at.alicdn.com/t/font_1031158_u69w8yhxdu.ttf?t=1630033759944") format("truetype"); }
</style></defs><path d="M313.67 541.97c-27.55 0-50.09 22.54-50.09 50.09v288.69h566.78c27.55 0 50.09-22.54 50.09-50.09V541.97H313.67zM238.14 382.31s-49.33 17.66-58.33 31.58c-20.15 31.17-40.88 74.16-40.88 74.16V756.4l49.61-69.86 50.06-19.12-0.46-285.11z" fill="#E9F1FF" p-id="1396"></path><path d="M840.02 905.75H235.2c-13.81 0-25-11.19-25-25s11.19-25 25-25h604.81c13.4 0 24.3-11.31 24.3-25.22V493.1c0-13.9-10.9-25.22-24.3-25.22H724.84c-13.81 0-25-11.19-25-25s11.19-25 25-25h115.18c40.97 0 74.3 33.74 74.3 75.22v337.43c0 41.48-33.33 75.22-74.3 75.22zM347.89 467.89H239.72c-13.81 0-25-11.19-25-25s11.19-25 25-25h108.17c13.81 0 25 11.19 25 25s-11.19 25-25 25zM142.31 375.42c-13.81 0-25-11.19-25-25 0-64.77 52.7-117.47 117.47-117.47 13.81 0 25 11.19 25 25s-11.19 25-25 25c-37.2 0-67.47 30.27-67.47 67.47 0 13.81-11.19 25-25 25z" fill="#2C5CCB" p-id="1397"></path><path d="M234.78 905.75c-64.77 0-117.47-52.7-117.47-117.47s52.7-117.47 117.47-117.47c13.81 0 25 11.19 25 25s-11.19 25-25 25c-37.2 0-67.47 30.27-67.47 67.47s30.27 67.47 67.47 67.47c13.81 0 25 11.19 25 25s-11.19 25-25 25z" fill="#2C5CCB" p-id="1398"></path><path d="M235.2 721.99c-13.81 0-25-11.19-25-25V259.12c0-13.81 11.19-25 25-25s25 11.19 25 25v437.87c0 13.81-11.19 25-25 25zM142.31 813.28c-13.81 0-25-11.19-25-25V350.42c0-13.81 11.19-25 25-25s25 11.19 25 25v437.87c0 13.8-11.19 24.99-25 24.99z" fill="#2C5CCB" p-id="1399"></path><path d="M536.96 565.54c-13.81 0-25-11.19-25-25V225.19c0-13.81 11.19-25 25-25s25 11.19 25 25v315.35c0 13.81-11.19 25-25 25z" fill="#2C5CCB" p-id="1400"></path><path d="M536.75 250.19c-37.13 0-67.33-30.2-67.33-67.33 0-37.13 30.2-67.33 67.33-67.33 37.12 0 67.33 30.2 67.33 67.33 0 37.12-30.2 67.33-67.33 67.33z m0-84.66c-9.56 0-17.33 7.77-17.33 17.33 0 9.56 7.77 17.33 17.33 17.33s17.33-7.77 17.33-17.33c0-9.56-7.77-17.33-17.33-17.33zM536.75 650.2c-37.13 0-67.33-30.2-67.33-67.33s30.2-67.33 67.33-67.33c37.12 0 67.33 30.2 67.33 67.33s-30.2 67.33-67.33 67.33z m0-84.66c-9.56 0-17.33 7.77-17.33 17.33s7.77 17.33 17.33 17.33 17.33-7.77 17.33-17.33-7.77-17.33-17.33-17.33z" fill="#2C5CCB" p-id="1401"></path><path d="M697.58 632.33c-2.83 0-5.7-0.48-8.51-1.5-20.63-7.47-38.34-20.28-51.19-37.05-13.56-17.68-20.73-38.47-20.73-60.11V347.83c0-13.81 11.19-25 25-25s25 11.19 25 25v185.84c0 21.56 15.65 41.71 38.95 50.15 12.98 4.7 19.69 19.04 14.99 32.02-3.68 10.17-13.28 16.49-23.51 16.49z" fill="#2C5CCB" p-id="1402"></path><path d="M642.15 372.83c-37.12 0-67.33-30.2-67.33-67.33s30.2-67.33 67.33-67.33c37.13 0 67.33 30.2 67.33 67.33s-30.2 67.33-67.33 67.33z m0-84.66c-9.56 0-17.33 7.77-17.33 17.33s7.77 17.33 17.33 17.33 17.33-7.77 17.33-17.33-7.77-17.33-17.33-17.33zM739.91 692.53c-37.13 0-67.33-30.2-67.33-67.33s30.2-67.33 67.33-67.33 67.33 30.2 67.33 67.33-30.2 67.33-67.33 67.33z m0-84.66c-9.56 0-17.33 7.77-17.33 17.33s7.77 17.33 17.33 17.33 17.33-7.77 17.33-17.33-7.77-17.33-17.33-17.33z" fill="#2C5CCB" p-id="1403"></path><path d="M375.93 632.33c-10.23 0-19.82-6.32-23.51-16.49-4.7-12.98 2.01-27.32 14.99-32.02 23.3-8.44 38.95-28.59 38.95-50.15V347.83c0-13.81 11.19-25 25-25s25 11.19 25 25v185.84c0 21.65-7.17 42.43-20.73 60.11-12.85 16.76-30.56 29.57-51.19 37.05-2.81 1.02-5.69 1.5-8.51 1.5z" fill="#2C5CCB" p-id="1404"></path><path d="M431.36 372.83c-37.13 0-67.33-30.2-67.33-67.33s30.2-67.33 67.33-67.33 67.33 30.2 67.33 67.33-30.21 67.33-67.33 67.33z m0-84.66c-9.56 0-17.33 7.77-17.33 17.33s7.77 17.33 17.33 17.33 17.33-7.77 17.33-17.33-7.78-17.33-17.33-17.33zM333.59 692.53c-37.12 0-67.33-30.2-67.33-67.33s30.2-67.33 67.33-67.33c37.13 0 67.33 30.2 67.33 67.33s-30.2 67.33-67.33 67.33z m0-84.66c-9.56 0-17.33 7.77-17.33 17.33s7.77 17.33 17.33 17.33 17.33-7.77 17.33-17.33-7.77-17.33-17.33-17.33z" fill="#2C5CCB" p-id="1405"></path></svg>