<?xml version="1.0" standalone="no"?><!DOCTYPE svg PUBLIC "-//W3C//DTD SVG 1.1//EN" "http://www.w3.org/Graphics/SVG/1.1/DTD/svg11.dtd"><svg t="1658807470142" class="icon" viewBox="0 0 1024 1024" version="1.1" xmlns="http://www.w3.org/2000/svg" p-id="1546" xmlns:xlink="http://www.w3.org/1999/xlink" width="200" height="200"><defs><style type="text/css">@font-face { font-family: "feedback-iconfont"; src: url("//at.alicdn.com/t/font_1031158_u69w8yhxdu.woff2?t=1630033759944") format("woff2"), url("//at.alicdn.com/t/font_1031158_u69w8yhxdu.woff?t=1630033759944") format("woff"), url("//at.alicdn.com/t/font_1031158_u69w8yhxdu.ttf?t=1630033759944") format("truetype"); }
</style></defs><path d="M418.95 374.32c-38.78 0-63.02 41.98-43.63 75.57l154.61 267.79c12.5-3.1 23.99-10.99 31.32-23.68l184.57-319.68H418.95z" fill="#E9F1FF" p-id="1547"></path><path d="M803.55 299.32H348.43c-13.81 0-25-11.19-25-25s11.19-25 25-25h455.13c13.81 0 25 11.19 25 25s-11.2 25-25.01 25z" fill="#2C5CCB" p-id="1548"></path><path d="M231.68 274.32m-57.35 0a57.35 57.35 0 1 0 114.7 0 57.35 57.35 0 1 0-114.7 0Z" fill="#2C5CCB" p-id="1549"></path><path d="M231.68 332.17c-31.9 0-57.85-25.95-57.85-57.85s25.95-57.85 57.85-57.85c31.9 0 57.85 25.95 57.85 57.85s-25.95 57.85-57.85 57.85z m0-114.7c-31.35 0-56.85 25.5-56.85 56.85s25.5 56.85 56.85 56.85 56.85-25.5 56.85-56.85-25.5-56.85-56.85-56.85z" fill="#2C5CCB" p-id="1550"></path><path d="M196.5 410.67c-2.49 0-5.03-0.38-7.53-1.17-28.53-9.01-53.09-26.5-71.03-50.6-18.32-24.6-28-53.85-28-84.59 0-78.16 63.59-141.74 141.74-141.74s141.74 63.59 141.74 141.74c0 13.81-11.19 25-25 25s-25-11.19-25-25c0-50.59-41.16-91.74-91.74-91.74s-91.74 41.16-91.74 91.74c0 40.24 25.75 75.41 64.08 87.51 13.17 4.16 20.47 18.2 16.31 31.37-3.36 10.67-13.21 17.48-23.83 17.48z" fill="#2C5CCB" p-id="1551"></path><path d="M459.27 690.78c-8.64 0-17.04-4.48-21.67-12.5L210.03 284.12c-6.9-11.96-2.81-27.25 9.15-34.15 11.96-6.9 27.25-2.81 34.15 9.15L480.9 653.27c6.9 11.96 2.81 27.25-9.15 34.15a24.846 24.846 0 0 1-12.48 3.36z" fill="#2C5CCB" p-id="1552"></path><path d="M517.62 766.88m-57.35 0a57.35 57.35 0 1 0 114.7 0 57.35 57.35 0 1 0-114.7 0Z" fill="#2C5CCB" p-id="1553"></path><path d="M517.71 824.75c-5.03 0-10.08-0.66-15.07-2-14.93-4-27.4-13.57-35.13-26.96-7.73-13.38-9.78-28.97-5.78-43.9 4-14.93 13.57-27.4 26.96-35.13 27.63-15.95 63.08-6.45 79.03 21.18 15.95 27.63 6.45 63.08-21.17 79.03-8.92 5.15-18.81 7.78-28.84 7.78z m-0.19-114.71c-9.64 0-19.4 2.45-28.33 7.61-13.15 7.59-22.56 19.85-26.49 34.52-3.93 14.67-1.91 29.99 5.68 43.14s19.85 22.56 34.52 26.49c14.67 3.93 29.99 1.91 43.14-5.68 27.15-15.67 36.48-50.51 20.81-77.66-10.52-18.23-29.67-28.42-49.33-28.42z" fill="#2C5CCB" p-id="1554"></path><path d="M517.85 908.59c-49.03 0-96.77-25.42-122.99-70.84-39.08-67.69-15.8-154.55 51.88-193.63 11.96-6.9 27.25-2.81 34.15 9.15s2.81 27.25-9.15 34.15c-43.81 25.29-58.87 81.51-33.58 125.32 16.97 29.4 47.88 45.85 79.61 45.85 15.56 0 31.31-3.95 45.72-12.27 34.85-20.12 52.43-60 43.74-99.25-2.98-13.48 5.53-26.83 19.01-29.81 13.48-2.98 26.83 5.53 29.81 19.01 6.46 29.21 3.59 59.23-8.3 86.82-12.14 28.16-32.63 51.17-59.26 66.54-22.26 12.85-46.61 18.96-70.64 18.96z" fill="#2C5CCB" p-id="1555"></path><path d="M517.59 791.88c-4.24 0-8.54-1.08-12.48-3.35-11.96-6.9-16.05-22.19-9.15-34.15l227.56-394.15c6.9-11.96 22.19-16.05 34.15-9.15 11.96 6.9 16.05 22.19 9.15 34.15L539.27 779.38c-4.63 8.02-13.04 12.5-21.68 12.5z" fill="#2C5CCB" p-id="1556"></path><path d="M803.55 271.62m-57.35 0a57.35 57.35 0 1 0 114.7 0 57.35 57.35 0 1 0-114.7 0Z" fill="#2C5CCB" p-id="1557"></path><path d="M803.45 329.46a57.47 57.47 0 0 1-28.83-7.74c-27.63-15.95-37.12-51.4-21.17-79.03 15.95-27.62 51.4-37.13 79.03-21.18 13.38 7.73 22.96 20.2 26.96 35.13s1.95 30.52-5.78 43.9c-10.71 18.55-30.2 28.92-50.21 28.92z m0.2-114.68c-19.66 0-38.81 10.2-49.33 28.42-15.67 27.15-6.34 61.99 20.81 77.66 27.15 15.67 61.99 6.34 77.66-20.81 7.59-13.15 9.61-28.47 5.68-43.14s-13.34-26.93-26.49-34.52a56.46 56.46 0 0 0-28.33-7.61z" fill="#2C5CCB" p-id="1558"></path><path d="M803.31 413.34c-24.03 0-48.37-6.11-70.63-18.96-11.96-6.9-16.05-22.19-9.15-34.15 6.9-11.96 22.19-16.05 34.15-9.15 43.81 25.29 100.03 10.23 125.32-33.58 25.29-43.81 10.23-100.03-33.58-125.32-34.85-20.12-78.18-15.4-107.82 11.74-10.18 9.32-26 8.63-35.32-1.56-9.32-10.18-8.63-26 1.56-35.32 22.06-20.2 49.5-32.72 79.34-36.22 30.46-3.56 60.63 2.68 87.25 18.05 67.69 39.08 90.96 125.94 51.88 193.62-26.23 45.42-73.97 70.85-123 70.85z" fill="#2C5CCB" p-id="1559"></path></svg>