<?xml version="1.0" standalone="no"?><!DOCTYPE svg PUBLIC "-//W3C//DTD SVG 1.1//EN" "http://www.w3.org/Graphics/SVG/1.1/DTD/svg11.dtd"><svg t="1658807484035" class="icon" viewBox="0 0 1024 1024" version="1.1" xmlns="http://www.w3.org/2000/svg" p-id="1858" xmlns:xlink="http://www.w3.org/1999/xlink" width="200" height="200"><defs><style type="text/css">@font-face { font-family: "feedback-iconfont"; src: url("//at.alicdn.com/t/font_1031158_u69w8yhxdu.woff2?t=1630033759944") format("woff2"), url("//at.alicdn.com/t/font_1031158_u69w8yhxdu.woff?t=1630033759944") format("woff"), url("//at.alicdn.com/t/font_1031158_u69w8yhxdu.ttf?t=1630033759944") format("truetype"); }
</style></defs><path d="M431.76 237.71v95.65c0 1.55 0.08 3.09 0.22 4.61h400.95c27.5 0 50-22.5 50-50v-95.65c0-1.55-0.08-3.09-0.22-4.61H481.76c-27.5 0-50 22.5-50 50zM200.41 777.75v95.65c0 1.55 0.08 3.09 0.22 4.61h400.95c27.5 0 50-22.5 50-50v-95.65c0-1.55-0.08-3.09-0.22-4.61H250.41c-27.5 0-50 22.5-50 50z" fill="#E9F1FF" p-id="1859"></path><path d="M832.93 362.97H423.85c-41.35 0-75-33.65-75-75v-95.65c0-41.35 33.65-75 75-75h409.09c41.35 0 75 33.65 75 75v95.65c-0.01 41.36-33.65 75-75.01 75zM423.85 167.32c-13.79 0-25 11.21-25 25v95.65c0 13.79 11.21 25 25 25h409.09c13.79 0 25-11.21 25-25v-95.65c0-13.79-11.21-25-25-25H423.85zM601.59 908.2H192.5c-41.35 0-75-33.65-75-75v-95.65c0-41.35 33.65-75 75-75h409.09c41.35 0 75 33.65 75 75v95.65c0 41.35-33.65 75-75 75zM192.5 712.54c-13.79 0-25 11.21-25 25v95.65c0 13.79 11.21 25 25 25h409.09c13.79 0 25-11.21 25-25v-95.65c0-13.79-11.21-25-25-25H192.5z" fill="#2C5CCB" p-id="1860"></path><path d="M872.31 824.56H655.28c-13.81 0-25-11.19-25-25s11.19-25 25-25H859.3V538.3H598.74c-13.81 0-25-11.19-25-25s11.19-25 25-25h273.57c20.4 0 37 16.6 37 37v262.26c0 20.4-16.6 37-37 37z m0-286.26zM415.8 538.3H152.72c-20.4 0-37-16.6-37-37V239.04c0-20.4 16.6-37 37-37h221.13c13.81 0 25 11.19 25 25s-11.19 25-25 25H165.72V488.3H415.8c13.81 0 25 11.19 25 25s-11.19 25-25 25z" fill="#2C5CCB" p-id="1861"></path><path d="M512 635.9L388.1 512 512 388.1 635.9 512 512 635.9zM458.81 512L512 565.19 565.19 512 512 458.81 458.81 512z" fill="#2C5CCB" p-id="1862"></path></svg>